<!--
  Copyright (C) 2025 The EVERGARDEN Development Team

  Licensed under the MIT License (the "License");
  you may not use this file except in compliance with the License.
  You may obtain a copy of the License at

           https://opensource.org/licenses/MIT
-->
<svg xmlns="http://www.w3.org/2000/svg" xmlns:xlink="http://www.w3.org/1999/xlink">
	<defs>
		<symbol id="chevrons" viewBox="0 0 24 24">
			<path d="M13 17l5-5-5-5"/>
			<path d="M6 17l5-5-5-5"/>
		</symbol>
		<symbol id="chevron" viewBox="0 0 24 24">
			<path d="M9 18l6-6-6-6"/>
		</symbol>
		<symbol id="x" viewBox="0 0 24 24">
			<path d="M18 6L6 18"/>
			<path d="M6 6l12 12"/>
		</symbol>
		<symbol id="circle" viewBox="0 0 24 24">
			<circle cx="12" cy="12" r="10"/>
		</symbol>
		<symbol id="edit" viewBox="0 0 24 24">
			<path d="M11 4H4a2 2 0 00-2 2v14a2 2 0 002 2h14a2 2 0 002-2v-7"/>
			<path d="M18.5 2.5a2.121 2.121 0 013 3L12 15l-4 1 1-4 9.5-9.5z"/>
		</symbol>
		<symbol id="help" viewBox="0 0 24 24">
			<circle cx="12" cy="12" r="10"/>
			<path d="M9.09 9a3 3 0 015.83 1c0 2-3 3-3 3"/>
			<path d="M12 17h.01"/>
		</symbol>
		<symbol id="twitter" viewBox="0 0 24 24">
			<path d="M23 3a10.9 10.9 0 01-3.14 1.53 4.48 4.48 0 00-7.86 3v1A10.66 10.66 0 013 4s-4 9 5 13a11.64 11.64 0 01-7 2c9 5 20 0 20-11.5a4.5 4.5 0 00-.08-.83A7.72 7.72 0 0023 3z"/>
		</symbol>
		<symbol id="copy" viewBox="0 0 24 24">
			<path d="M8 17.929H6c-1.105 0-2-.912-2-2.036V5.036C4 3.91 4.895 3 6 3h8c1.105 0 2 .911 2 2.036v1.866m-6 .17h8c1.105 0 2 .91 2 2.035v10.857C20 21.09 19.105 22 18 22h-8c-1.105 0-2-.911-2-2.036V9.107c0-1.124.895-2.036 2-2.036z"/>
		</symbol>
		<symbol id="moon" viewBox="0 0 24 24">
			<path d="M21 12.79A9 9 0 1111.21 3 7 7 0 0021 12.79z"/>
		</symbol>
		<symbol id="sun" viewBox="0 0 24 24">
			<circle cx="12" cy="12" r="5"/><path d="M12 1v2"/>
			<path d="M12 21v2"/>
			<path d="M4.22 4.22l1.42 1.42"/>
			<path d="M18.36 18.36l1.42 1.42"/>
			<path d="M1 12h2"/>
			<path d="M21 12h2"/>
			<path d="M4.22 19.78l1.42-1.42"/>
			<path d="M18.36 5.64l1.42-1.42"/>
		</symbol>
		<symbol id="text" viewBox="0 0 24 24">
			<path d="M14 2H6a2 2 0 00-2 2v16a2 2 0 002 2h12a2 2 0 002-2V8z"/>
			<path d="M14 2v6h6"/>
			<path d="M16 13H8"/>
			<path d="M16 17H8"/>
			<path d="M10 9H8"/>
		</symbol>
		<symbol id="package" viewBox="0 0 24 24">
			<path d="M16.5 9.4l-9-5.19"/>
			<path d="M21 16V8a2 2 0 00-1-1.73l-7-4a2 2 0 00-2 0l-7 4A2 2 0 003 8v8a2 2 0 001 1.73l7 4a2 2 0 002 0l7-4A2 2 0 0021 16z"/>
			<path d="M3.27 6.96L12 12.01l8.73-5.05"/>
			<path d="M12 22.08V12"/>
		</symbol>
		<symbol id="user" viewBox="0 0 24 24">
			<path d="M20 21v-2a4 4 0 00-4-4H8a4 4 0 00-4 4v2"/>
			<circle cx="12" cy="7" r="4"/>
		</symbol>
		<symbol id="activity" viewBox="0 0 24 24">
			<path d="M22 12h-4l-3 9L9 3l-3 9H2"/>
		</symbol>
		<symbol id="github" viewBox="0 0 24 24">
			<path d="M9 19c-5 1.5-5-2.5-7-3m14 6v-3.87a3.37 3.37 0 00-.94-2.61c3.14-.35 6.44-1.54 6.44-7A5.44 5.44 0 0020 4.77 5.07 5.07 0 0019.91 1S18.73.65 16 2.48a13.38 13.38 0 00-7 0C6.27.65 5.09 1 5.09 1A5.07 5.07 0 005 4.77a5.44 5.44 0 00-1.5 3.78c0 5.42 3.3 6.61 6.44 7A3.37 3.37 0 009 18.13V22"/>
		</symbol>
		<symbol id="star" viewBox="0 0 16 16">
			<path d="M8 .25a.75.75 0 0 1 .673.418l1.882 3.815 4.21.612a.75.75 0 0 1 .416 1.279l-3.046 2.97.719 4.192a.751.751 0 0 1-1.088.791L8 12.347l-3.766 1.98a.75.75 0 0 1-1.088-.79l.72-4.194L.818 6.374a.75.75 0 0 1 .416-1.28l4.21-.611L7.327.668A.75.75 0 0 1 8 .25Zm0 2.445L6.615 5.5a.75.75 0 0 1-.564.41l-3.097.45 2.24 2.184a.75.75 0 0 1 .216.664l-.528 3.084 2.769-1.456a.75.75 0 0 1 .698 0l2.77 1.456-.53-3.084a.75.75 0 0 1 .216-.664l2.24-2.183-3.096-.45a.75.75 0 0 1-.564-.41L8 2.694Z"/>
		</symbol>
		<symbol id="fork" viewBox="0 0 16 16">
			<path d="M5 5.372v.878c0 .414.336.75.75.75h4.5a.75.75 0 0 0 .75-.75v-.878a2.25 2.25 0 1 1 1.5 0v.878a2.25 2.25 0 0 1-2.25 2.25h-1.5v2.128a2.251 2.251 0 1 1-1.5 0V8.5h-1.5A2.25 2.25 0 0 1 3.5 6.25v-.878a2.25 2.25 0 1 1 1.5 0ZM5 3.25a.75.75 0 1 0-1.5 0 .75.75 0 0 0 1.5 0Zm6.75.75a.75.75 0 1 0 0-1.5.75.75 0 0 0 0 1.5Zm-3 8.75a.75.75 0 1 0-1.5 0 .75.75 0 0 0 1.5 0Z"/>
		</symbol>
		<symbol id="license" viewBox="0 0 16 16">
			<path d="M8.75.75V2h.985c.304 0 .603.08.867.231l1.29.736c.038.022.08.033.124.033h2.234a.75.75 0 0 1 0 1.5h-.427l2.111 4.692a.75.75 0 0 1-.154.838l-.53-.53.529.531-.001.002-.002.002-.006.006-.006.005-.01.01-.045.04c-.21.176-.441.327-.686.45C14.556 10.78 13.88 11 13 11a4.498 4.498 0 0 1-2.023-.454 3.544 3.544 0 0 1-.686-.45l-.045-.04-.016-.015-.006-.006-.004-.004v-.001a.75.75 0 0 1-.154-.838L12.178 4.5h-.162c-.305 0-.604-.079-.868-.231l-1.29-.736a.245.245 0 0 0-.124-.033H8.75V13h2.5a.75.75 0 0 1 0 1.5h-6.5a.75.75 0 0 1 0-1.5h2.5V3.5h-.984a.245.245 0 0 0-.124.033l-1.289.737c-.265.15-.564.23-.869.23h-.162l2.112 4.692a.75.75 0 0 1-.154.838l-.53-.53.529.531-.001.002-.002.002-.006.006-.016.015-.045.04c-.21.176-.441.327-.686.45C4.556 10.78 3.88 11 3 11a4.498 4.498 0 0 1-2.023-.454 3.544 3.544 0 0 1-.686-.45l-.045-.04-.016-.015-.006-.006-.004-.004v-.001a.75.75 0 0 1-.154-.838L2.178 4.5H1.75a.75.75 0 0 1 0-1.5h2.234a.249.249 0 0 0 .125-.033l1.288-.737c.265-.15.564-.23.869-.23h.984V.75a.75.75 0 0 1 1.5 0Zm2.945 8.477c.285.135.718.273 1.305.273s1.02-.138 1.305-.273L13 6.327Zm-10 0c.285.135.718.273 1.305.273s1.02-.138 1.305-.273L3 6.327Z"/>
		</symbol>
		<symbol id="language" viewBox="0 -960 960 960">
			<path d="m480-400-80-80 80-80 80 80-80 80Zm-85-235L295-735l185-185 185 185-100 100-85-85-85 85ZM225-295 40-480l185-185 100 100-85 85 85 85-100 100Zm510 0L635-395l85-85-85-85 100-100 185 185-185 185ZM480-40 295-225l100-100 85 85 85-85 100 100L480-40Z"/>
		</symbol>
	</defs>
</svg>